<?xml version="1.0" encoding="UTF-8" standalone="no"?>
<!DOCTYPE svg PUBLIC "-//W3C//DTD SVG 1.1//EN"
 "http://www.w3.org/Graphics/SVG/1.1/DTD/svg11.dtd">
<!-- Generated by graphviz version 2.43.0 (0)
 -->
<!-- Title: indexer Pages: 1 -->
<svg width="100%" height="100%" xmlns="http://www.w3.org/2000/svg" xmlns:xlink="http://www.w3.org/1999/xlink">
<script type="text/ecmascript"><![CDATA[
/**
 *  SVGPan library 1.2.2
 * ======================
 *
 * Given an unique existing element with id "viewport" (or when missing, the
 * first g-element), including the library into any SVG adds the following
 * capabilities:
 *
 *  - Mouse panning
 *  - Mouse zooming (using the wheel)
 *  - Object dragging
 *
 * You can configure the behaviour of the pan/zoom/drag with the variables
 * listed in the CONFIGURATION section of this file.
 *
 * Known issues:
 *
 *  - Zooming (while panning) on Safari has still some issues
 *
 * Releases:
 *
 * 1.2.2, Tue Aug 30 17:21:56 CEST 2011, Andrea Leofreddi
 *	- Fixed viewBox on root tag (#7)
 *	- Improved zoom speed (#2)
 *
 * 1.2.1, Mon Jul  4 00:33:18 CEST 2011, Andrea Leofreddi
 *	- Fixed a regression with mouse wheel (now working on Firefox 5)
 *	- Working with viewBox attribute (#4)
 *	- Added "use strict;" and fixed resulting warnings (#5)
 *	- Added configuration variables, dragging is disabled by default (#3)
 *
 * 1.2, Sat Mar 20 08:42:50 GMT 2010, Zeng Xiaohui
 *	Fixed a bug with browser mouse handler interaction
 *
 * 1.1, Wed Feb  3 17:39:33 GMT 2010, Zeng Xiaohui
 *	Updated the zoom code to support the mouse wheel on Safari/Chrome
 *
 * 1.0, Andrea Leofreddi
 *	First release
 *
 * This code is licensed under the following BSD license:
 *
 * Copyright 2009-2017 Andrea Leofreddi <a.leofreddi@vleo.net>. All rights reserved.
 *
 * Redistribution and use in source and binary forms, with or without modification, are
 * permitted provided that the following conditions are met:
 *
 *    1. Redistributions of source code must retain the above copyright
 *       notice, this list of conditions and the following disclaimer.
 *    2. Redistributions in binary form must reproduce the above copyright
 *       notice, this list of conditions and the following disclaimer in the
 *       documentation and/or other materials provided with the distribution.
 *    3. Neither the name of the copyright holder nor the names of its
 *       contributors may be used to endorse or promote products derived from
 *       this software without specific prior written permission.
 *
 * THIS SOFTWARE IS PROVIDED BY COPYRIGHT HOLDERS AND CONTRIBUTORS ''AS IS'' AND ANY EXPRESS
 * OR IMPLIED WARRANTIES, INCLUDING, BUT NOT LIMITED TO, THE IMPLIED WARRANTIES OF MERCHANTABILITY
 * AND FITNESS FOR A PARTICULAR PURPOSE ARE DISCLAIMED. IN NO EVENT SHALL COPYRIGHT HOLDERS OR
 * CONTRIBUTORS BE LIABLE FOR ANY DIRECT, INDIRECT, INCIDENTAL, SPECIAL, EXEMPLARY, OR
 * CONSEQUENTIAL DAMAGES (INCLUDING, BUT NOT LIMITED TO, PROCUREMENT OF SUBSTITUTE GOODS OR
 * SERVICES; LOSS OF USE, DATA, OR PROFITS; OR BUSINESS INTERRUPTION) HOWEVER CAUSED AND ON
 * ANY THEORY OF LIABILITY, WHETHER IN CONTRACT, STRICT LIABILITY, OR TORT (INCLUDING
 * NEGLIGENCE OR OTHERWISE) ARISING IN ANY WAY OUT OF THE USE OF THIS SOFTWARE, EVEN IF
 * ADVISED OF THE POSSIBILITY OF SUCH DAMAGE.
 *
 * The views and conclusions contained in the software and documentation are those of the
 * authors and should not be interpreted as representing official policies, either expressed
 * or implied, of Andrea Leofreddi.
 */

"use strict";

/// CONFIGURATION
/// ====>

var enablePan = 1; // 1 or 0: enable or disable panning (default enabled)
var enableZoom = 1; // 1 or 0: enable or disable zooming (default enabled)
var enableDrag = 0; // 1 or 0: enable or disable dragging (default disabled)
var zoomScale = 0.2; // Zoom sensitivity

/// <====
/// END OF CONFIGURATION

var root = document.documentElement;

var state = 'none', svgRoot = null, stateTarget, stateOrigin, stateTf;

setupHandlers(root);

/**
 * Register handlers
 */
function setupHandlers(root){
	setAttributes(root, {
		"onmouseup" : "handleMouseUp(evt)",
		"onmousedown" : "handleMouseDown(evt)",
		"onmousemove" : "handleMouseMove(evt)",
		//"onmouseout" : "handleMouseUp(evt)", // Decomment this to stop the pan functionality when dragging out of the SVG element
	});

	if(navigator.userAgent.toLowerCase().indexOf('webkit') >= 0)
		window.addEventListener('mousewheel', handleMouseWheel, false); // Chrome/Safari
	else
		window.addEventListener('DOMMouseScroll', handleMouseWheel, false); // Others
}

/**
 * Retrieves the root element for SVG manipulation. The element is then cached into the svgRoot global variable.
 */
function getRoot(root) {
	if(svgRoot == null) {
		var r = root.getElementById("viewport") ? root.getElementById("viewport") : root.documentElement, t = r;

		while(t != root) {
			if(t.getAttribute("viewBox")) {
				setCTM(r, t.getCTM());

				t.removeAttribute("viewBox");
			}

			t = t.parentNode;
		}

		svgRoot = r;
	}

	return svgRoot;
}

/**
 * Instance an SVGPoint object with given event coordinates.
 */
function getEventPoint(evt) {
	var p = root.createSVGPoint();

	p.x = evt.clientX;
	p.y = evt.clientY;

	return p;
}

/**
 * Sets the current transform matrix of an element.
 */
function setCTM(element, matrix) {
	var s = "matrix(" + matrix.a + "," + matrix.b + "," + matrix.c + "," + matrix.d + "," + matrix.e + "," + matrix.f + ")";

	element.setAttribute("transform", s);
}

/**
 * Dumps a matrix to a string (useful for debug).
 */
function dumpMatrix(matrix) {
	var s = "[ " + matrix.a + ", " + matrix.c + ", " + matrix.e + "\n  " + matrix.b + ", " + matrix.d + ", " + matrix.f + "\n  0, 0, 1 ]";

	return s;
}

/**
 * Sets attributes of an element.
 */
function setAttributes(element, attributes){
	for (var i in attributes)
		element.setAttributeNS(null, i, attributes[i]);
}

/**
 * Handle mouse wheel event.
 */
function handleMouseWheel(evt) {
	if(!enableZoom)
		return;

	if(evt.preventDefault)
		evt.preventDefault();

	evt.returnValue = false;

	var svgDoc = evt.target.ownerDocument;

	var delta;

	if(evt.wheelDelta)
		delta = evt.wheelDelta / 360; // Chrome/Safari
	else
		delta = evt.detail / -9; // Mozilla

	var z = Math.pow(1 + zoomScale, delta);

	var g = getRoot(svgDoc);
	
	var p = getEventPoint(evt);

	p = p.matrixTransform(g.getCTM().inverse());

	// Compute new scale matrix in current mouse position
	var k = root.createSVGMatrix().translate(p.x, p.y).scale(z).translate(-p.x, -p.y);

        setCTM(g, g.getCTM().multiply(k));

	if(typeof(stateTf) == "undefined")
		stateTf = g.getCTM().inverse();

	stateTf = stateTf.multiply(k.inverse());
}

/**
 * Handle mouse move event.
 */
function handleMouseMove(evt) {
	if(evt.preventDefault)
		evt.preventDefault();

	evt.returnValue = false;

	var svgDoc = evt.target.ownerDocument;

	var g = getRoot(svgDoc);

	if(state == 'pan' && enablePan) {
		// Pan mode
		var p = getEventPoint(evt).matrixTransform(stateTf);

		setCTM(g, stateTf.inverse().translate(p.x - stateOrigin.x, p.y - stateOrigin.y));
	} else if(state == 'drag' && enableDrag) {
		// Drag mode
		var p = getEventPoint(evt).matrixTransform(g.getCTM().inverse());

		setCTM(stateTarget, root.createSVGMatrix().translate(p.x - stateOrigin.x, p.y - stateOrigin.y).multiply(g.getCTM().inverse()).multiply(stateTarget.getCTM()));

		stateOrigin = p;
	}
}

/**
 * Handle click event.
 */
function handleMouseDown(evt) {
	if(evt.preventDefault)
		evt.preventDefault();

	evt.returnValue = false;

	var svgDoc = evt.target.ownerDocument;

	var g = getRoot(svgDoc);

	if(
		evt.target.tagName == "svg"
		|| !enableDrag // Pan anyway when drag is disabled and the user clicked on an element
	) {
		// Pan mode
		state = 'pan';

		stateTf = g.getCTM().inverse();

		stateOrigin = getEventPoint(evt).matrixTransform(stateTf);
	} else {
		// Drag mode
		state = 'drag';

		stateTarget = evt.target;

		stateTf = g.getCTM().inverse();

		stateOrigin = getEventPoint(evt).matrixTransform(stateTf);
	}
}

/**
 * Handle mouse button release event.
 */
function handleMouseUp(evt) {
	if(evt.preventDefault)
		evt.preventDefault();

	evt.returnValue = false;

	var svgDoc = evt.target.ownerDocument;

	if(state == 'pan' || state == 'drag') {
		// Quit pan mode
		state = '';
	}
}
]]></script><g id="viewport" transform="scale(0.5,0.5) translate(0,0)"><g id="graph0" class="graph" transform="scale(1 1) rotate(0) translate(4 1218)">
<title>indexer</title>
<polygon fill="white" stroke="transparent" points="-4,4 -4,-1218 769,-1218 769,4 -4,4"/>
<g id="clust1" class="cluster">
<title>cluster_L</title>
<polygon fill="none" stroke="black" points="8,-1055 8,-1206 632,-1206 632,-1055 8,-1055"/>
</g>
<!-- File: indexer -->
<g id="node1" class="node">
<title>File: indexer</title>
<g id="a_node1"><a xlink:title="indexer">
<polygon fill="#f8f8f8" stroke="black" points="624,-1198 16,-1198 16,-1063 624,-1063 624,-1198"/>
<text text-anchor="start" x="24" y="-1181.2" font-family="Times,serif" font-size="16.00">File: indexer</text>
<text text-anchor="start" x="24" y="-1163.2" font-family="Times,serif" font-size="16.00">Type: inuse_space</text>
<text text-anchor="start" x="24" y="-1145.2" font-family="Times,serif" font-size="16.00">Time: Feb 3, 2025 at 1:13pm (&#45;05)</text>
<text text-anchor="start" x="24" y="-1127.2" font-family="Times,serif" font-size="16.00">Showing nodes accounting for 1282.90MB, 98.11% of 1307.66MB total</text>
<text text-anchor="start" x="24" y="-1109.2" font-family="Times,serif" font-size="16.00">Dropped 30 nodes (cum &lt;= 6.54MB)</text>
<text text-anchor="start" x="24" y="-1072.2" font-family="Times,serif" font-size="16.00">See https://git.io/JfYMW for how to read the graph</text>
</a>
</g>
</g>
<!-- N1 -->
<g id="node1" class="node">
<title>N1</title>
<g id="a_node1"><a xlink:title="main.processFile (1200.36MB)">
<polygon fill="#edd6d5" stroke="#b20400" points="440.5,-782 137.5,-782 137.5,-670 440.5,-670 440.5,-782"/>
<text text-anchor="middle" x="289" y="-758.8" font-family="Times,serif" font-size="24.00">main</text>
<text text-anchor="middle" x="289" y="-732.8" font-family="Times,serif" font-size="24.00">processFile</text>
<text text-anchor="middle" x="289" y="-706.8" font-family="Times,serif" font-size="24.00">994.40MB (76.04%)</text>
<text text-anchor="middle" x="289" y="-680.8" font-family="Times,serif" font-size="24.00">of 1200.36MB (91.79%)</text>
</a>
</g>
</g>
<!-- NN1_0 -->
<g id="NN1_0" class="node">
<title>NN1_0</title>
<g id="a_NN1_0"><a xlink:title="440.16MB">
<polygon fill="#f8f8f8" stroke="black" points="631,-604 559,-604 555,-600 555,-568 627,-568 631,-572 631,-604"/>
<polyline fill="none" stroke="black" points="627,-600 555,-600 "/>
<polyline fill="none" stroke="black" points="627,-600 627,-568 "/>
<polyline fill="none" stroke="black" points="627,-600 631,-604 "/>
<text text-anchor="middle" x="593" y="-584.1" font-family="Times,serif" font-size="8.00">4.75kB..104kB</text>
</a>
</g>
</g>
<!-- N1&#45;&gt;NN1_0 -->
<g id="edge1" class="edge">
<title>N1&#45;&gt;NN1_0</title>
<g id="a_edge1"><a xlink:title="440.16MB">
<path fill="none" stroke="black" d="M440.64,-670C454.41,-664.21 468.04,-658.17 481,-652 507.58,-639.34 536.27,-622.62 557.96,-609.31"/>
<polygon fill="black" stroke="black" points="559.85,-612.26 566.51,-604.02 556.16,-606.31 559.85,-612.26"/>
</a>
</g>
<g id="a_edge1&#45;label"><a xlink:title="440.16MB">
<text text-anchor="middle" x="574.5" y="-633.3" font-family="Times,serif" font-size="14.00"> 440.16MB</text>
</a>
</g>
</g>
<!-- NN1_1 -->
<g id="NN1_1" class="node">
<title>NN1_1</title>
<g id="a_NN1_1"><a xlink:title="286.89MB">
<polygon fill="#f8f8f8" stroke="black" points="118,-604 56,-604 52,-600 52,-568 114,-568 118,-572 118,-604"/>
<polyline fill="none" stroke="black" points="114,-600 52,-600 "/>
<polyline fill="none" stroke="black" points="114,-600 114,-568 "/>
<polyline fill="none" stroke="black" points="114,-600 118,-604 "/>
<text text-anchor="middle" x="85" y="-584.1" font-family="Times,serif" font-size="8.00">24B..2.25kB</text>
</a>
</g>
</g>
<!-- N1&#45;&gt;NN1_1 -->
<g id="edge2" class="edge">
<title>N1&#45;&gt;NN1_1</title>
<g id="a_edge2"><a xlink:title="286.89MB">
<path fill="none" stroke="black" d="M137.2,-673.43C127.74,-667.06 118.88,-659.95 111,-652 100.8,-641.72 94.47,-626.92 90.61,-614.05"/>
<polygon fill="black" stroke="black" points="93.96,-613.03 88.01,-604.26 87.19,-614.82 93.96,-613.03"/>
</a>
</g>
<g id="a_edge2&#45;label"><a xlink:title="286.89MB">
<text text-anchor="middle" x="150.5" y="-633.3" font-family="Times,serif" font-size="14.00"> 286.89MB</text>
</a>
</g>
</g>
<!-- NN1_2 -->
<g id="NN1_2" class="node">
<title>NN1_2</title>
<g id="a_NN1_2"><a xlink:title="105.80MB">
<polygon fill="#f8f8f8" stroke="black" points="226,-604 152,-604 148,-600 148,-568 222,-568 226,-572 226,-604"/>
<polyline fill="none" stroke="black" points="222,-600 148,-600 "/>
<polyline fill="none" stroke="black" points="222,-600 222,-568 "/>
<polyline fill="none" stroke="black" points="222,-600 226,-604 "/>
<text text-anchor="middle" x="187" y="-584.1" font-family="Times,serif" font-size="8.00">2.62kB..3.38kB</text>
</a>
</g>
</g>
<!-- N1&#45;&gt;NN1_2 -->
<g id="edge3" class="edge">
<title>N1&#45;&gt;NN1_2</title>
<g id="a_edge3"><a xlink:title="105.80MB">
<path fill="none" stroke="black" d="M219.46,-669.73C214.5,-664.09 209.92,-658.15 206,-652 198.77,-640.65 194.21,-626.45 191.37,-614.22"/>
<polygon fill="black" stroke="black" points="194.74,-613.2 189.3,-604.11 187.88,-614.61 194.74,-613.2"/>
</a>
</g>
<g id="a_edge3&#45;label"><a xlink:title="105.80MB">
<text text-anchor="middle" x="245.5" y="-633.3" font-family="Times,serif" font-size="14.00"> 105.80MB</text>
</a>
</g>
</g>
<!-- NN1_3 -->
<g id="NN1_3" class="node">
<title>NN1_3</title>
<g id="a_NN1_3"><a xlink:title="44.67MB">
<polygon fill="#f8f8f8" stroke="black" points="316,-604 266,-604 262,-600 262,-568 312,-568 316,-572 316,-604"/>
<polyline fill="none" stroke="black" points="312,-600 262,-600 "/>
<polyline fill="none" stroke="black" points="312,-600 312,-568 "/>
<polyline fill="none" stroke="black" points="312,-600 316,-604 "/>
<text text-anchor="middle" x="289" y="-584.1" font-family="Times,serif" font-size="8.00">4kB</text>
</a>
</g>
</g>
<!-- N1&#45;&gt;NN1_3 -->
<g id="edge4" class="edge">
<title>N1&#45;&gt;NN1_3</title>
<g id="a_edge4"><a xlink:title="44.67MB">
<path fill="none" stroke="black" d="M289,-669.67C289,-650.66 289,-630.21 289,-614.4"/>
<polygon fill="black" stroke="black" points="292.5,-614.28 289,-604.28 285.5,-614.28 292.5,-614.28"/>
</a>
</g>
<g id="a_edge4&#45;label"><a xlink:title="44.67MB">
<text text-anchor="middle" x="324" y="-633.3" font-family="Times,serif" font-size="14.00"> 44.67MB</text>
</a>
</g>
</g>
<!-- N5 -->
<g id="node5" class="node">
<title>N5</title>
<g id="a_node5"><a xlink:title="net/mail.ReadMessage (172.26MB)">
<polygon fill="#ede4dd" stroke="#b2723c" points="410,-507 294,-507 294,-471 410,-471 410,-507"/>
<text text-anchor="middle" x="352" y="-496.1" font-family="Times,serif" font-size="8.00">mail</text>
<text text-anchor="middle" x="352" y="-487.1" font-family="Times,serif" font-size="8.00">ReadMessage</text>
<text text-anchor="middle" x="352" y="-478.1" font-family="Times,serif" font-size="8.00">0 of 172.26MB (13.17%)</text>
</a>
</g>
</g>
<!-- N1&#45;&gt;N5 -->
<g id="edge13" class="edge">
<title>N1&#45;&gt;N5</title>
<g id="a_edge13"><a xlink:title="main.processFile &#45;&gt; net/mail.ReadMessage (172.26MB)">
<path fill="none" stroke="#b2723c" d="M350.27,-669.89C354.13,-664.21 357.47,-658.22 360,-652 369.61,-628.34 361.59,-556.89 356.09,-517.24"/>
<polygon fill="#b2723c" stroke="#b2723c" points="359.54,-516.61 354.66,-507.2 352.61,-517.6 359.54,-516.61"/>
</a>
</g>
<g id="a_edge13&#45;label"><a xlink:title="main.processFile &#45;&gt; net/mail.ReadMessage (172.26MB)">
<text text-anchor="middle" x="404.5" y="-582.3" font-family="Times,serif" font-size="14.00"> 172.26MB</text>
</a>
</g>
</g>
<!-- N6 -->
<g id="node6" class="node">
<title>N6</title>
<g id="a_node6"><a xlink:title="main.cleanMalformedHeaders (23.65MB)">
<polygon fill="#edeceb" stroke="#b2ada2" points="584,-517 428,-517 428,-461 584,-461 584,-517"/>
<text text-anchor="middle" x="506" y="-504.2" font-family="Times,serif" font-size="11.00">main</text>
<text text-anchor="middle" x="506" y="-492.2" font-family="Times,serif" font-size="11.00">cleanMalformedHeaders</text>
<text text-anchor="middle" x="506" y="-480.2" font-family="Times,serif" font-size="11.00">16.63MB (1.27%)</text>
<text text-anchor="middle" x="506" y="-468.2" font-family="Times,serif" font-size="11.00">of 23.65MB (1.81%)</text>
</a>
</g>
</g>
<!-- N1&#45;&gt;N6 -->
<g id="edge24" class="edge">
<title>N1&#45;&gt;N6</title>
<g id="a_edge24"><a xlink:title="main.processFile &#45;&gt; main.cleanMalformedHeaders (23.65MB)">
<path fill="none" stroke="#b2ada2" d="M373.18,-669.93C398.22,-650.98 424.44,-628.36 445,-604 464.6,-580.79 480.53,-550.25 491.19,-526.63"/>
<polygon fill="#b2ada2" stroke="#b2ada2" points="494.47,-527.86 495.29,-517.29 488.06,-525.04 494.47,-527.86"/>
</a>
</g>
<g id="a_edge24&#45;label"><a xlink:title="main.processFile &#45;&gt; main.cleanMalformedHeaders (23.65MB)">
<text text-anchor="middle" x="505" y="-582.3" font-family="Times,serif" font-size="14.00"> 23.65MB</text>
</a>
</g>
</g>
<!-- N2 -->
<g id="node2" class="node">
<title>N2</title>
<g id="a_node2"><a xlink:title="main.main.func2.1 (1267.99MB)">
<polygon fill="#edd5d5" stroke="#b20100" points="509.5,-1012 334.5,-1012 334.5,-920 509.5,-920 509.5,-1012"/>
<text text-anchor="middle" x="422" y="-997.6" font-family="Times,serif" font-size="13.00">main</text>
<text text-anchor="middle" x="422" y="-983.6" font-family="Times,serif" font-size="13.00">main</text>
<text text-anchor="middle" x="422" y="-969.6" font-family="Times,serif" font-size="13.00">func2</text>
<text text-anchor="middle" x="422" y="-955.6" font-family="Times,serif" font-size="13.00">1</text>
<text text-anchor="middle" x="422" y="-941.6" font-family="Times,serif" font-size="13.00">67.63MB (5.17%)</text>
<text text-anchor="middle" x="422" y="-927.6" font-family="Times,serif" font-size="13.00">of 1267.99MB (96.97%)</text>
</a>
</g>
</g>
<!-- N2&#45;&gt;N1 -->
<g id="edge12" class="edge">
<title>N2&#45;&gt;N1</title>
<g id="a_edge12"><a xlink:title="main.main.func2.1 &#45;&gt; main.processFile (1200.36MB)">
<path fill="none" stroke="#b20400" stroke-width="5" d="M342.84,-919.83C325.14,-905.87 308.52,-888.84 298,-869 285.74,-845.89 282.09,-817.6 282.01,-792.36"/>
<polygon fill="#b20400" stroke="#b20400" stroke-width="5" points="286.39,-792.2 282.17,-782.13 277.64,-792.06 286.39,-792.2"/>
</a>
</g>
<g id="a_edge12&#45;label"><a xlink:title="main.main.func2.1 &#45;&gt; main.processFile (1200.36MB)">
<text text-anchor="middle" x="342" y="-847.3" font-family="Times,serif" font-size="14.00"> 1200.36MB</text>
</a>
</g>
</g>
<!-- NN2_0 -->
<g id="NN2_0" class="node">
<title>NN2_0</title>
<g id="a_NN2_0"><a xlink:title="67.63MB">
<polygon fill="#f8f8f8" stroke="black" points="449,-869 399,-869 395,-865 395,-833 445,-833 449,-837 449,-869"/>
<polyline fill="none" stroke="black" points="445,-865 395,-865 "/>
<polyline fill="none" stroke="black" points="445,-865 445,-833 "/>
<polyline fill="none" stroke="black" points="445,-865 449,-869 "/>
<text text-anchor="middle" x="422" y="-849.1" font-family="Times,serif" font-size="8.00">67.63MB</text>
</a>
</g>
</g>
<!-- N2&#45;&gt;NN2_0 -->
<g id="edge5" class="edge">
<title>N2&#45;&gt;NN2_0</title>
<g id="a_edge5"><a xlink:title="67.63MB">
<path fill="none" stroke="black" d="M422,-919.69C422,-906.06 422,-891.52 422,-879.42"/>
<polygon fill="black" stroke="black" points="425.5,-879.1 422,-869.1 418.5,-879.1 425.5,-879.1"/>
</a>
</g>
<g id="a_edge5&#45;label"><a xlink:title="67.63MB">
<text text-anchor="middle" x="457" y="-890.8" font-family="Times,serif" font-size="14.00"> 67.63MB</text>
</a>
</g>
</g>
<!-- N3 -->
<g id="node3" class="node">
<title>N3</title>
<g id="a_node3"><a xlink:title="net/textproto.readMIMEHeader (164.73MB)">
<polygon fill="#ede5de" stroke="#b27642" points="446.5,-285 257.5,-285 257.5,-209 446.5,-209 446.5,-285"/>
<text text-anchor="middle" x="352" y="-269" font-family="Times,serif" font-size="15.00">textproto</text>
<text text-anchor="middle" x="352" y="-252" font-family="Times,serif" font-size="15.00">readMIMEHeader</text>
<text text-anchor="middle" x="352" y="-235" font-family="Times,serif" font-size="15.00">163.19MB (12.48%)</text>
<text text-anchor="middle" x="352" y="-218" font-family="Times,serif" font-size="15.00">of 164.73MB (12.60%)</text>
</a>
</g>
</g>
<!-- NN3_0 -->
<g id="NN3_0" class="node">
<title>NN3_0</title>
<g id="a_NN3_0"><a xlink:title="52MB">
<polygon fill="#f8f8f8" stroke="black" points="379,-133 329,-133 325,-129 325,-97 375,-97 379,-101 379,-133"/>
<polyline fill="none" stroke="black" points="375,-129 325,-129 "/>
<polyline fill="none" stroke="black" points="375,-129 375,-97 "/>
<polyline fill="none" stroke="black" points="375,-129 379,-133 "/>
<text text-anchor="middle" x="352" y="-113.1" font-family="Times,serif" font-size="8.00">48B</text>
</a>
</g>
</g>
<!-- N3&#45;&gt;NN3_0 -->
<g id="edge6" class="edge">
<title>N3&#45;&gt;NN3_0</title>
<g id="a_edge6"><a xlink:title="52MB">
<path fill="none" stroke="black" d="M352,-208.75C352,-187.83 352,-162.19 352,-143.17"/>
<polygon fill="black" stroke="black" points="355.5,-143.09 352,-133.09 348.5,-143.09 355.5,-143.09"/>
</a>
</g>
<g id="a_edge6&#45;label"><a xlink:title="52MB">
<text text-anchor="middle" x="376" y="-172.3" font-family="Times,serif" font-size="14.00"> 52MB</text>
</a>
</g>
</g>
<!-- NN3_1 -->
<g id="NN3_1" class="node">
<title>NN3_1</title>
<g id="a_NN3_1"><a xlink:title="22.50MB">
<polygon fill="#f8f8f8" stroke="black" points="451,-133 401,-133 397,-129 397,-97 447,-97 451,-101 451,-133"/>
<polyline fill="none" stroke="black" points="447,-129 397,-129 "/>
<polyline fill="none" stroke="black" points="447,-129 447,-97 "/>
<polyline fill="none" stroke="black" points="447,-129 451,-133 "/>
<text text-anchor="middle" x="424" y="-113.1" font-family="Times,serif" font-size="8.00">32B</text>
</a>
</g>
</g>
<!-- N3&#45;&gt;NN3_1 -->
<g id="edge7" class="edge">
<title>N3&#45;&gt;NN3_1</title>
<g id="a_edge7"><a xlink:title="22.50MB">
<path fill="none" stroke="black" d="M389.64,-208.97C394.24,-203.26 398.53,-197.19 402,-191 410.29,-176.24 415.72,-158.06 419.11,-143.3"/>
<polygon fill="black" stroke="black" points="422.59,-143.75 421.24,-133.25 415.75,-142.31 422.59,-143.75"/>
</a>
</g>
<g id="a_edge7&#45;label"><a xlink:title="22.50MB">
<text text-anchor="middle" x="450" y="-172.3" font-family="Times,serif" font-size="14.00"> 22.50MB</text>
</a>
</g>
</g>
<!-- NN3_2 -->
<g id="NN3_2" class="node">
<title>NN3_2</title>
<g id="a_NN3_2"><a xlink:title="14.50MB">
<polygon fill="#f8f8f8" stroke="black" points="286,-133 236,-133 232,-129 232,-97 282,-97 286,-101 286,-133"/>
<polyline fill="none" stroke="black" points="282,-129 232,-129 "/>
<polyline fill="none" stroke="black" points="282,-129 282,-97 "/>
<polyline fill="none" stroke="black" points="282,-129 286,-133 "/>
<text text-anchor="middle" x="259" y="-113.1" font-family="Times,serif" font-size="8.00">24B</text>
</a>
</g>
</g>
<!-- N3&#45;&gt;NN3_2 -->
<g id="edge8" class="edge">
<title>N3&#45;&gt;NN3_2</title>
<g id="a_edge8"><a xlink:title="14.50MB">
<path fill="none" stroke="black" d="M293.29,-208.72C287.55,-203.31 282.27,-197.38 278,-191 268.56,-176.9 263.81,-158.45 261.42,-143.38"/>
<polygon fill="black" stroke="black" points="264.84,-142.57 260.06,-133.11 257.9,-143.48 264.84,-142.57"/>
</a>
</g>
<g id="a_edge8&#45;label"><a xlink:title="14.50MB">
<text text-anchor="middle" x="313" y="-172.3" font-family="Times,serif" font-size="14.00"> 14.50MB</text>
</a>
</g>
</g>
<!-- N4 -->
<g id="node4" class="node">
<title>N4</title>
<g id="a_node4"><a xlink:title="strings.(*Builder).grow (33.52MB)">
<polygon fill="#edecea" stroke="#b2aa9b" points="752,-143 638,-143 638,-87 752,-87 752,-143"/>
<text text-anchor="middle" x="695" y="-130.2" font-family="Times,serif" font-size="11.00">strings</text>
<text text-anchor="middle" x="695" y="-118.2" font-family="Times,serif" font-size="11.00">(*Builder)</text>
<text text-anchor="middle" x="695" y="-106.2" font-family="Times,serif" font-size="11.00">grow</text>
<text text-anchor="middle" x="695" y="-94.2" font-family="Times,serif" font-size="11.00">33.52MB (2.56%)</text>
</a>
</g>
</g>
<!-- NN4_0 -->
<g id="NN4_0" class="node">
<title>NN4_0</title>
<g id="a_NN4_0"><a xlink:title="17MB">
<polygon fill="#f8f8f8" stroke="black" points="686,-36 636,-36 632,-32 632,0 682,0 686,-4 686,-36"/>
<polyline fill="none" stroke="black" points="682,-32 632,-32 "/>
<polyline fill="none" stroke="black" points="682,-32 682,0 "/>
<polyline fill="none" stroke="black" points="682,-32 686,-36 "/>
<text text-anchor="middle" x="659" y="-16.1" font-family="Times,serif" font-size="8.00">64B</text>
</a>
</g>
</g>
<!-- N4&#45;&gt;NN4_0 -->
<g id="edge9" class="edge">
<title>N4&#45;&gt;NN4_0</title>
<g id="a_edge9"><a xlink:title="17MB">
<path fill="none" stroke="black" d="M670.55,-86.98C666.69,-81.38 663.24,-75.27 661,-69 658.45,-61.88 657.41,-53.83 657.14,-46.3"/>
<polygon fill="black" stroke="black" points="660.64,-46.17 657.19,-36.15 653.64,-46.13 660.64,-46.17"/>
</a>
</g>
<g id="a_edge9&#45;label"><a xlink:title="17MB">
<text text-anchor="middle" x="685" y="-57.8" font-family="Times,serif" font-size="14.00"> 17MB</text>
</a>
</g>
</g>
<!-- NN4_1 -->
<g id="NN4_1" class="node">
<title>NN4_1</title>
<g id="a_NN4_1"><a xlink:title="12MB">
<polygon fill="#f8f8f8" stroke="black" points="758,-36 708,-36 704,-32 704,0 754,0 758,-4 758,-36"/>
<polyline fill="none" stroke="black" points="754,-32 704,-32 "/>
<polyline fill="none" stroke="black" points="754,-32 754,0 "/>
<polyline fill="none" stroke="black" points="754,-32 758,-36 "/>
<text text-anchor="middle" x="731" y="-16.1" font-family="Times,serif" font-size="8.00">80B</text>
</a>
</g>
</g>
<!-- N4&#45;&gt;NN4_1 -->
<g id="edge10" class="edge">
<title>N4&#45;&gt;NN4_1</title>
<g id="a_edge10"><a xlink:title="12MB">
<path fill="none" stroke="black" d="M705.32,-86.78C710.2,-73.88 716.02,-58.54 720.88,-45.71"/>
<polygon fill="black" stroke="black" points="724.26,-46.65 724.54,-36.06 717.72,-44.17 724.26,-46.65"/>
</a>
</g>
<g id="a_edge10&#45;label"><a xlink:title="12MB">
<text text-anchor="middle" x="741" y="-57.8" font-family="Times,serif" font-size="14.00"> 12MB</text>
</a>
</g>
</g>
<!-- N10 -->
<g id="node10" class="node">
<title>N10</title>
<g id="a_node10"><a xlink:title="bufio.NewReader (7.53MB)">
<polygon fill="#ededec" stroke="#b2b1ad" points="263,-391 163,-391 163,-355 263,-355 263,-391"/>
<text text-anchor="middle" x="213" y="-380.1" font-family="Times,serif" font-size="8.00">bufio</text>
<text text-anchor="middle" x="213" y="-371.1" font-family="Times,serif" font-size="8.00">NewReader</text>
<text text-anchor="middle" x="213" y="-362.1" font-family="Times,serif" font-size="8.00">0 of 7.53MB (0.58%)</text>
</a>
</g>
</g>
<!-- N5&#45;&gt;N10 -->
<g id="edge26" class="edge">
<title>N5&#45;&gt;N10</title>
<g id="a_edge26"><a xlink:title="net/mail.ReadMessage &#45;&gt; bufio.NewReader (7.53MB)">
<path fill="none" stroke="#b2b1ad" d="M325.44,-470.88C313.41,-462.81 299.19,-452.81 287,-443 269.69,-429.06 251.4,-412.03 237.34,-398.39"/>
<polygon fill="#b2b1ad" stroke="#b2b1ad" points="239.59,-395.69 230,-391.19 234.69,-400.69 239.59,-395.69"/>
</a>
</g>
<g id="a_edge26&#45;label"><a xlink:title="net/mail.ReadMessage &#45;&gt; bufio.NewReader (7.53MB)">
<text text-anchor="middle" x="317.5" y="-431.8" font-family="Times,serif" font-size="14.00"> 7.53MB</text>
<text text-anchor="middle" x="317.5" y="-416.8" font-family="Times,serif" font-size="14.00"> (inline)</text>
</a>
</g>
</g>
<!-- N12 -->
<g id="node12" class="node">
<title>N12</title>
<g id="a_node12"><a xlink:title="net/textproto.(*Reader).ReadMIMEHeader (164.73MB)">
<polygon fill="#ede5de" stroke="#b27642" points="410,-395 294,-395 294,-351 410,-351 410,-395"/>
<text text-anchor="middle" x="352" y="-384.6" font-family="Times,serif" font-size="8.00">textproto</text>
<text text-anchor="middle" x="352" y="-375.6" font-family="Times,serif" font-size="8.00">(*Reader)</text>
<text text-anchor="middle" x="352" y="-366.6" font-family="Times,serif" font-size="8.00">ReadMIMEHeader</text>
<text text-anchor="middle" x="352" y="-357.6" font-family="Times,serif" font-size="8.00">0 of 164.73MB (12.60%)</text>
</a>
</g>
</g>
<!-- N5&#45;&gt;N12 -->
<g id="edge14" class="edge">
<title>N5&#45;&gt;N12</title>
<g id="a_edge14"><a xlink:title="net/mail.ReadMessage &#45;&gt; net/textproto.(*Reader).ReadMIMEHeader (164.73MB)">
<path fill="none" stroke="#b27642" d="M352,-470.69C352,-453.42 352,-426.51 352,-405.46"/>
<polygon fill="#b27642" stroke="#b27642" points="355.5,-405.37 352,-395.37 348.5,-405.37 355.5,-405.37"/>
</a>
</g>
<g id="a_edge14&#45;label"><a xlink:title="net/mail.ReadMessage &#45;&gt; net/textproto.(*Reader).ReadMIMEHeader (164.73MB)">
<text text-anchor="middle" x="391.5" y="-431.8" font-family="Times,serif" font-size="14.00"> 164.73MB</text>
<text text-anchor="middle" x="391.5" y="-416.8" font-family="Times,serif" font-size="14.00"> (inline)</text>
</a>
</g>
</g>
<!-- N8 -->
<g id="node8" class="node">
<title>N8</title>
<g id="a_node8"><a xlink:title="strings.Join (33.52MB)">
<polygon fill="#edecea" stroke="#b2aa9b" points="747.5,-391 642.5,-391 642.5,-355 747.5,-355 747.5,-391"/>
<text text-anchor="middle" x="695" y="-380.1" font-family="Times,serif" font-size="8.00">strings</text>
<text text-anchor="middle" x="695" y="-371.1" font-family="Times,serif" font-size="8.00">Join</text>
<text text-anchor="middle" x="695" y="-362.1" font-family="Times,serif" font-size="8.00">0 of 33.52MB (2.56%)</text>
</a>
</g>
</g>
<!-- N6&#45;&gt;N8 -->
<g id="edge27" class="edge">
<title>N6&#45;&gt;N8</title>
<g id="a_edge27"><a xlink:title="main.cleanMalformedHeaders &#45;&gt; strings.Join (3.51MB)">
<path fill="none" stroke="#b2b2b0" d="M550.75,-460.88C574.31,-446.61 603.71,-428.84 630,-413 638.96,-407.6 648.63,-401.79 657.69,-396.35"/>
<polygon fill="#b2b2b0" stroke="#b2b2b0" points="659.74,-399.21 666.51,-391.06 656.13,-393.21 659.74,-399.21"/>
</a>
</g>
<g id="a_edge27&#45;label"><a xlink:title="main.cleanMalformedHeaders &#45;&gt; strings.Join (3.51MB)">
<text text-anchor="middle" x="660.5" y="-424.3" font-family="Times,serif" font-size="14.00"> 3.51MB</text>
</a>
</g>
</g>
<!-- N7 -->
<g id="node7" class="node">
<title>N7</title>
<g id="a_node7"><a xlink:title="runtime.main (32.16MB)">
<polygon fill="#edecea" stroke="#b2ab9c" points="747.5,-1148.5 642.5,-1148.5 642.5,-1112.5 747.5,-1112.5 747.5,-1148.5"/>
<text text-anchor="middle" x="695" y="-1137.6" font-family="Times,serif" font-size="8.00">runtime</text>
<text text-anchor="middle" x="695" y="-1128.6" font-family="Times,serif" font-size="8.00">main</text>
<text text-anchor="middle" x="695" y="-1119.6" font-family="Times,serif" font-size="8.00">0 of 32.16MB (2.46%)</text>
</a>
</g>
</g>
<!-- N11 -->
<g id="node11" class="node">
<title>N11</title>
<g id="a_node11"><a xlink:title="main.main (32.16MB)">
<polygon fill="#edecea" stroke="#b2ab9c" points="747.5,-984 642.5,-984 642.5,-948 747.5,-948 747.5,-984"/>
<text text-anchor="middle" x="695" y="-973.1" font-family="Times,serif" font-size="8.00">main</text>
<text text-anchor="middle" x="695" y="-964.1" font-family="Times,serif" font-size="8.00">main</text>
<text text-anchor="middle" x="695" y="-955.1" font-family="Times,serif" font-size="8.00">0 of 32.16MB (2.46%)</text>
</a>
</g>
</g>
<!-- N7&#45;&gt;N11 -->
<g id="edge18" class="edge">
<title>N7&#45;&gt;N11</title>
<g id="a_edge18"><a xlink:title="runtime.main &#45;&gt; main.main (32.16MB)">
<path fill="none" stroke="#b2ab9c" d="M695,-1112.42C695,-1084.33 695,-1028.15 695,-994.44"/>
<polygon fill="#b2ab9c" stroke="#b2ab9c" points="698.5,-994.34 695,-984.34 691.5,-994.34 698.5,-994.34"/>
</a>
</g>
<g id="a_edge18&#45;label"><a xlink:title="runtime.main &#45;&gt; main.main (32.16MB)">
<text text-anchor="middle" x="730" y="-1033.8" font-family="Times,serif" font-size="14.00"> 32.16MB</text>
</a>
</g>
</g>
<!-- N17 -->
<g id="node17" class="node">
<title>N17</title>
<g id="a_node17"><a xlink:title="strings.(*Builder).Grow (33.52MB)">
<polygon fill="#edecea" stroke="#b2aa9b" points="747.5,-269 642.5,-269 642.5,-225 747.5,-225 747.5,-269"/>
<text text-anchor="middle" x="695" y="-258.6" font-family="Times,serif" font-size="8.00">strings</text>
<text text-anchor="middle" x="695" y="-249.6" font-family="Times,serif" font-size="8.00">(*Builder)</text>
<text text-anchor="middle" x="695" y="-240.6" font-family="Times,serif" font-size="8.00">Grow</text>
<text text-anchor="middle" x="695" y="-231.6" font-family="Times,serif" font-size="8.00">0 of 33.52MB (2.56%)</text>
</a>
</g>
</g>
<!-- N8&#45;&gt;N17 -->
<g id="edge17" class="edge">
<title>N8&#45;&gt;N17</title>
<g id="a_edge17"><a xlink:title="strings.Join &#45;&gt; strings.(*Builder).Grow (33.52MB)">
<path fill="none" stroke="#b2aa9b" d="M695,-354.76C695,-335.28 695,-303.18 695,-279.26"/>
<polygon fill="#b2aa9b" stroke="#b2aa9b" points="698.5,-279.25 695,-269.25 691.5,-279.25 698.5,-279.25"/>
</a>
</g>
<g id="a_edge17&#45;label"><a xlink:title="strings.Join &#45;&gt; strings.(*Builder).Grow (33.52MB)">
<text text-anchor="middle" x="730" y="-321.8" font-family="Times,serif" font-size="14.00"> 33.52MB</text>
<text text-anchor="middle" x="730" y="-306.8" font-family="Times,serif" font-size="14.00"> (inline)</text>
</a>
</g>
</g>
<!-- N9 -->
<g id="node9" class="node">
<title>N9</title>
<g id="a_node9"><a xlink:title="bufio.NewReaderSize (7.53MB)">
<polygon fill="#ededec" stroke="#b2b1ad" points="224,-267.5 126,-267.5 126,-226.5 224,-226.5 224,-267.5"/>
<text text-anchor="middle" x="175" y="-255.5" font-family="Times,serif" font-size="10.00">bufio</text>
<text text-anchor="middle" x="175" y="-244.5" font-family="Times,serif" font-size="10.00">NewReaderSize</text>
<text text-anchor="middle" x="175" y="-233.5" font-family="Times,serif" font-size="10.00">7.53MB (0.58%)</text>
</a>
</g>
</g>
<!-- NN9_0 -->
<g id="NN9_0" class="node">
<title>NN9_0</title>
<g id="a_NN9_0"><a xlink:title="7.53MB">
<polygon fill="#f8f8f8" stroke="black" points="202,-133 152,-133 148,-129 148,-97 198,-97 202,-101 202,-133"/>
<polyline fill="none" stroke="black" points="198,-129 148,-129 "/>
<polyline fill="none" stroke="black" points="198,-129 198,-97 "/>
<polyline fill="none" stroke="black" points="198,-129 202,-133 "/>
<text text-anchor="middle" x="175" y="-113.1" font-family="Times,serif" font-size="8.00">4kB</text>
</a>
</g>
</g>
<!-- N9&#45;&gt;NN9_0 -->
<g id="edge11" class="edge">
<title>N9&#45;&gt;NN9_0</title>
<g id="a_edge11"><a xlink:title="7.53MB">
<path fill="none" stroke="black" d="M175,-226.26C175,-204.11 175,-168.03 175,-143.22"/>
<polygon fill="black" stroke="black" points="178.5,-143.02 175,-133.02 171.5,-143.02 178.5,-143.02"/>
</a>
</g>
<g id="a_edge11&#45;label"><a xlink:title="7.53MB">
<text text-anchor="middle" x="205.5" y="-172.3" font-family="Times,serif" font-size="14.00"> 7.53MB</text>
</a>
</g>
</g>
<!-- N10&#45;&gt;N9 -->
<g id="edge25" class="edge">
<title>N10&#45;&gt;N9</title>
<g id="a_edge25"><a xlink:title="bufio.NewReader &#45;&gt; bufio.NewReaderSize (7.53MB)">
<path fill="none" stroke="#b2b1ad" d="M207.72,-354.76C201.58,-334.73 191.35,-301.35 183.96,-277.24"/>
<polygon fill="#b2b1ad" stroke="#b2b1ad" points="187.27,-276.08 180.99,-267.55 180.57,-278.13 187.27,-276.08"/>
</a>
</g>
<g id="a_edge25&#45;label"><a xlink:title="bufio.NewReader &#45;&gt; bufio.NewReaderSize (7.53MB)">
<text text-anchor="middle" x="231.5" y="-321.8" font-family="Times,serif" font-size="14.00"> 7.53MB</text>
<text text-anchor="middle" x="231.5" y="-306.8" font-family="Times,serif" font-size="14.00"> (inline)</text>
</a>
</g>
</g>
<!-- N14 -->
<g id="node14" class="node">
<title>N14</title>
<g id="a_node14"><a xlink:title="path/filepath.Walk (31MB)">
<polygon fill="#edecea" stroke="#b2ab9d" points="741,-869 649,-869 649,-833 741,-833 741,-869"/>
<text text-anchor="middle" x="695" y="-858.1" font-family="Times,serif" font-size="8.00">filepath</text>
<text text-anchor="middle" x="695" y="-849.1" font-family="Times,serif" font-size="8.00">Walk</text>
<text text-anchor="middle" x="695" y="-840.1" font-family="Times,serif" font-size="8.00">0 of 31MB (2.37%)</text>
</a>
</g>
</g>
<!-- N11&#45;&gt;N14 -->
<g id="edge19" class="edge">
<title>N11&#45;&gt;N14</title>
<g id="a_edge19"><a xlink:title="main.main &#45;&gt; path/filepath.Walk (31MB)">
<path fill="none" stroke="#b2ab9d" d="M695,-947.84C695,-929.67 695,-900.72 695,-879.39"/>
<polygon fill="#b2ab9d" stroke="#b2ab9d" points="698.5,-879.32 695,-869.32 691.5,-879.32 698.5,-879.32"/>
</a>
</g>
<g id="a_edge19&#45;label"><a xlink:title="main.main &#45;&gt; path/filepath.Walk (31MB)">
<text text-anchor="middle" x="719" y="-890.8" font-family="Times,serif" font-size="14.00"> 31MB</text>
</a>
</g>
</g>
<!-- N12&#45;&gt;N3 -->
<g id="edge15" class="edge">
<title>N12&#45;&gt;N3</title>
<g id="a_edge15"><a xlink:title="net/textproto.(*Reader).ReadMIMEHeader &#45;&gt; net/textproto.readMIMEHeader (164.73MB)">
<path fill="none" stroke="#b27642" d="M352,-350.97C352,-335.74 352,-314.54 352,-295.34"/>
<polygon fill="#b27642" stroke="#b27642" points="355.5,-295.22 352,-285.22 348.5,-295.22 355.5,-295.22"/>
</a>
</g>
<g id="a_edge15&#45;label"><a xlink:title="net/textproto.(*Reader).ReadMIMEHeader &#45;&gt; net/textproto.readMIMEHeader (164.73MB)">
<text text-anchor="middle" x="391.5" y="-314.3" font-family="Times,serif" font-size="14.00"> 164.73MB</text>
</a>
</g>
</g>
<!-- N13 -->
<g id="node13" class="node">
<title>N13</title>
<g id="a_node13"><a xlink:title="path/filepath.Join (30MB)">
<polygon fill="#edecea" stroke="#b2ab9e" points="741,-604 649,-604 649,-568 741,-568 741,-604"/>
<text text-anchor="middle" x="695" y="-593.1" font-family="Times,serif" font-size="8.00">filepath</text>
<text text-anchor="middle" x="695" y="-584.1" font-family="Times,serif" font-size="8.00">Join</text>
<text text-anchor="middle" x="695" y="-575.1" font-family="Times,serif" font-size="8.00">0 of 30MB (2.29%)</text>
</a>
</g>
</g>
<!-- N15 -->
<g id="node15" class="node">
<title>N15</title>
<g id="a_node15"><a xlink:title="path/filepath.join (30MB)">
<polygon fill="#edecea" stroke="#b2ab9e" points="741,-507 649,-507 649,-471 741,-471 741,-507"/>
<text text-anchor="middle" x="695" y="-496.1" font-family="Times,serif" font-size="8.00">filepath</text>
<text text-anchor="middle" x="695" y="-487.1" font-family="Times,serif" font-size="8.00">join</text>
<text text-anchor="middle" x="695" y="-478.1" font-family="Times,serif" font-size="8.00">0 of 30MB (2.29%)</text>
</a>
</g>
</g>
<!-- N13&#45;&gt;N15 -->
<g id="edge21" class="edge">
<title>N13&#45;&gt;N15</title>
<g id="a_edge21"><a xlink:title="path/filepath.Join &#45;&gt; path/filepath.join (30MB)">
<path fill="none" stroke="#b2ab9e" d="M695,-567.58C695,-553.65 695,-533.86 695,-517.76"/>
<polygon fill="#b2ab9e" stroke="#b2ab9e" points="698.5,-517.31 695,-507.31 691.5,-517.31 698.5,-517.31"/>
</a>
</g>
<g id="a_edge21&#45;label"><a xlink:title="path/filepath.Join &#45;&gt; path/filepath.join (30MB)">
<text text-anchor="middle" x="719" y="-538.8" font-family="Times,serif" font-size="14.00"> 30MB</text>
</a>
</g>
</g>
<!-- N16 -->
<g id="node16" class="node">
<title>N16</title>
<g id="a_node16"><a xlink:title="path/filepath.walk (31MB)">
<polygon fill="#edecea" stroke="#b2ab9d" points="741,-744 649,-744 649,-708 741,-708 741,-744"/>
<text text-anchor="middle" x="695" y="-733.1" font-family="Times,serif" font-size="8.00">filepath</text>
<text text-anchor="middle" x="695" y="-724.1" font-family="Times,serif" font-size="8.00">walk</text>
<text text-anchor="middle" x="695" y="-715.1" font-family="Times,serif" font-size="8.00">0 of 31MB (2.37%)</text>
</a>
</g>
</g>
<!-- N14&#45;&gt;N16 -->
<g id="edge20" class="edge">
<title>N14&#45;&gt;N16</title>
<g id="a_edge20"><a xlink:title="path/filepath.Walk &#45;&gt; path/filepath.walk (31MB)">
<path fill="none" stroke="#b2ab9d" d="M695,-832.9C695,-812.63 695,-778.6 695,-754.59"/>
<polygon fill="#b2ab9d" stroke="#b2ab9d" points="698.5,-754.35 695,-744.35 691.5,-754.35 698.5,-754.35"/>
</a>
</g>
<g id="a_edge20&#45;label"><a xlink:title="path/filepath.Walk &#45;&gt; path/filepath.walk (31MB)">
<text text-anchor="middle" x="719" y="-803.8" font-family="Times,serif" font-size="14.00"> 31MB</text>
</a>
</g>
</g>
<!-- N15&#45;&gt;N8 -->
<g id="edge22" class="edge">
<title>N15&#45;&gt;N8</title>
<g id="a_edge22"><a xlink:title="path/filepath.join &#45;&gt; strings.Join (30MB)">
<path fill="none" stroke="#b2ab9e" d="M695,-470.69C695,-452.25 695,-422.82 695,-401.26"/>
<polygon fill="#b2ab9e" stroke="#b2ab9e" points="698.5,-401.1 695,-391.1 691.5,-401.1 698.5,-401.1"/>
</a>
</g>
<g id="a_edge22&#45;label"><a xlink:title="path/filepath.join &#45;&gt; strings.Join (30MB)">
<text text-anchor="middle" x="719" y="-424.3" font-family="Times,serif" font-size="14.00"> 30MB</text>
</a>
</g>
</g>
<!-- N16&#45;&gt;N13 -->
<g id="edge23" class="edge">
<title>N16&#45;&gt;N13</title>
<g id="a_edge23"><a xlink:title="path/filepath.walk &#45;&gt; path/filepath.Join (30MB)">
<path fill="none" stroke="#b2ab9e" d="M695,-707.8C695,-684.46 695,-642.47 695,-614.66"/>
<polygon fill="#b2ab9e" stroke="#b2ab9e" points="698.5,-614.42 695,-604.42 691.5,-614.42 698.5,-614.42"/>
</a>
</g>
<g id="a_edge23&#45;label"><a xlink:title="path/filepath.walk &#45;&gt; path/filepath.Join (30MB)">
<text text-anchor="middle" x="722.5" y="-640.8" font-family="Times,serif" font-size="14.00"> 30MB</text>
<text text-anchor="middle" x="722.5" y="-625.8" font-family="Times,serif" font-size="14.00"> (inline)</text>
</a>
</g>
</g>
<!-- N17&#45;&gt;N4 -->
<g id="edge16" class="edge">
<title>N17&#45;&gt;N4</title>
<g id="a_edge16"><a xlink:title="strings.(*Builder).Grow &#45;&gt; strings.(*Builder).grow (33.52MB)">
<path fill="none" stroke="#b2aa9b" d="M695,-224.82C695,-205.48 695,-176.45 695,-153.24"/>
<polygon fill="#b2aa9b" stroke="#b2aa9b" points="698.5,-153.04 695,-143.04 691.5,-153.04 698.5,-153.04"/>
</a>
</g>
<g id="a_edge16&#45;label"><a xlink:title="strings.(*Builder).Grow &#45;&gt; strings.(*Builder).grow (33.52MB)">
<text text-anchor="middle" x="730" y="-179.8" font-family="Times,serif" font-size="14.00"> 33.52MB</text>
<text text-anchor="middle" x="730" y="-164.8" font-family="Times,serif" font-size="14.00"> (inline)</text>
</a>
</g>
</g>
</g>
</g></svg>
